<?xml version="1.0" encoding="utf-8"?>
<!-- Generator: Adobe Illustrator 24.0.0, SVG Export Plug-In . SVG Version: 6.00 Build 0)  -->
<svg version="1.1" id="Layer_1" xmlns="http://www.w3.org/2000/svg" xmlns:xlink="http://www.w3.org/1999/xlink" x="0px" y="0px"
	 viewBox="0 0 720 720" style="enable-background:new 0 0 720 720;" xml:space="preserve">
<style type="text/css">
	.st0{fill:#85574A;}
</style>
<g>
	<path class="st0" d="M113.4,261.7c-45.5,36.2-70.7,75.4-76.8,96.2c-0.3,1.1-0.3,2.3,0,3.5c6.1,20.9,31.4,60.2,77.2,96.5
		C108.2,399.8,108.1,317,113.4,261.7z"/>
	<path class="st0" d="M607.1,261.9c5.3,55.3,5.1,137.8-0.4,195.8c45.7-36.3,70.9-75.5,77-96.3c0.3-1.1,0.3-2.3,0-3.5
		C677.6,337.1,652.5,298.1,607.1,261.9z"/>
	<path class="st0" d="M360.1,180.7c-82.1,0-147.9,20.8-198.2,48.7c-7,68.5-7,186.3,0.1,260.6c50.3,27.9,116.1,48.6,198.1,48.6
		c82.1,0,147.9-20.8,198.3-48.7c7.1-74.3,7.1-191.9,0.1-260.4C508.1,201.5,442.3,180.7,360.1,180.7z M495.2,370
		c0,2.6-2.3,4.6-5.2,4.6h-0.4v17.7c0,1.5-1.2,2.7-2.7,2.7h-1.3h-2.5h-1.3c-1.5,0-2.7-1.2-2.7-2.7v-17.7h-20.7v17.7
		c0,1.5-1.2,2.7-2.7,2.7h-1.2h-2.5h-1.4c-1.5,0-2.7-1.2-2.7-2.7v-17.7h-23.6v17.7c0,1.5-1.2,2.7-2.7,2.7h-1.4h-2.5h-1.3
		c-1.5,0-2.7-1.2-2.7-2.7v-17.7h-29.6v17.7c0,1.5-1.2,2.7-2.7,2.7h-1.4h-2.5h-1.2c-1.5,0-2.7-1.2-2.7-2.7v-17.7H345v17.7
		c0,1.5-1.2,2.7-2.7,2.7h-1.2h-2.5h-1.4c-1.5,0-2.7-1.2-2.7-2.7v-17.7h-27.7v17.7c0,1.5-1.2,2.7-2.7,2.7h-1.3h-2.5h-1.3
		c-1.5,0-2.7-1.2-2.7-2.7v-17.7h-24.5v17.7c0,1.5-1.2,2.7-2.7,2.7H268h-2.5h-1.4c-1.5,0-2.7-1.2-2.7-2.7v-17.7h-20.2v17.7
		c0,1.5-1.2,2.7-2.7,2.7h-1.4h-2.5h-1.2c-1.5,0-2.7-1.2-2.7-2.7v-17.8c-2.3-0.5-4-2.3-4-4.5v-16.4c0-2.2,1.7-4,4-4.5v-22.2
		c0-1.5,1.2-2.7,2.7-2.7h5.1c1.5,0,2.7,1.2,2.7,2.7V349h20.2v-22.1c0-1.5,1.2-2.7,2.7-2.7h5.1c1.5,0,2.7,1.2,2.7,2.7V349h24.5v-22.1
		c0-1.5,1.2-2.7,2.7-2.7h5.1c1.5,0,2.7,1.2,2.7,2.7V349h27.7v-22.1c0-1.5,1.2-2.7,2.7-2.7h5.1c1.5,0,2.7,1.2,2.7,2.7V349h28.9v-22.1
		c0-1.5,1.2-2.7,2.7-2.7h5.1c1.5,0,2.7,1.2,2.7,2.7V349h29.6v-22.1c0-1.5,1.2-2.7,2.7-2.7h5.1c1.5,0,2.7,1.2,2.7,2.7V349H448v-22.1
		c0-1.5,1.2-2.7,2.7-2.7h5.1c1.5,0,2.7,1.2,2.7,2.7V349h20.7v-22.1c0-1.5,1.2-2.7,2.7-2.7h5.1c1.5,0,2.7,1.2,2.7,2.7V349h0.4
		c2.9,0,5.2,2.1,5.2,4.6V370z"/>
</g>
</svg>
